{"title":"Sonali Cable (2014) 1CD DVDSCR Rip Xvid Mp3 Team TellyTNT Exclus","uid":11232400,"size":731839524,"categoryP":"video","categoryS":"movies","magnet":"?xt=urn:btih:92c81ec188db8e77919c5ebeea440b096e35d24a&amp;dn=Sonali+Cable+%282014%29+1CD+DVDSCR+Rip+Xvid+Mp3+Team+TellyTNT+Exclus&amp;tr=udp%3A%2F%2Ftracker.openbittorrent.com%3A80&amp;tr=udp%3A%2F%2Fopen.demonii.com%3A1337&amp;tr=udp%3A%2F%2Ftracker.coppersurfer.tk%3A6969&amp;tr=udp%3A%2F%2Fexodus.desync.com%3A6969","seeders":1,"leechers":0,"uploader":"inovai","files":23,"time":1413556990,"description":"Sonali Cable (2014) 1CD DVDSCR Rip Xvid Mp3 Team TellyTNT Exclusive\n\nCover:\n &lt;a href=&quot;\nhttp://forum.primetimeshow.in/viewtopic.php?f=7&amp;t=782&quot; rel=&quot;nofollow&quot; target=&quot;_NEW&quot;&gt;\nhttp://forum.primetimeshow.in/viewtopic.php?f=7&amp;t=782&lt;/a&gt;\n\nMovie:............Sonali Cable \nSource: ..........DVDSCR @ Team TellyTNT \nYear:.............2014\n\nScreenshots:\n &lt;a href=&quot;\nhttp://m.primetimeshow.in/share-6002_54410E71.html&quot; rel=&quot;nofollow&quot; target=&quot;_NEW&quot;&gt;\nhttp://m.primetimeshow.in/share-6002_54410E71.html&lt;/a&gt;\n &lt;a href=&quot;\nhttp://m.primetimeshow.in/share-8DF4_54410E71.html&quot; rel=&quot;nofollow&quot; target=&quot;_NEW&quot;&gt;\nhttp://m.primetimeshow.in/share-8DF4_54410E71.html&lt;/a&gt;\n &lt;a href=&quot;\nhttp://m.primetimeshow.in/share-6063_54410E71.html&quot; rel=&quot;nofollow&quot; target=&quot;_NEW&quot;&gt;\nhttp://m.primetimeshow.in/share-6063_54410E71.html&lt;/a&gt;\n &lt;a href=&quot;\nhttp://m.primetimeshow.in/share-15D9_54410E71.html&quot; rel=&quot;nofollow&quot; target=&quot;_NEW&quot;&gt;\nhttp://m.primetimeshow.in/share-15D9_54410E71.html&lt;/a&gt;\n &lt;a href=&quot;\nhttp://m.primetimeshow.in/share-1526_54410E71.html&quot; rel=&quot;nofollow&quot; target=&quot;_NEW&quot;&gt;\nhttp://m.primetimeshow.in/share-1526_54410E71.html&lt;/a&gt;\n\nGeneral\nComplete name : D:Sonali Cable.avi\nFormat : AVI\nFormat/Info : Audio Video Interleave\nFile size : 696 MiB\nDuration : 2h 4mn\nOverall bit rate : 784 Kbps\n\nVideo\nID : 0\nFormat : MPEG-4 Visual\nFormat profile : Advanced Simple@L5\nFormat settings, BVOP : 2\nFormat settings, QPel : No\nFormat settings, GMC : No warppoints\nFormat settings, Matrix : Default (H.263)\nCodec ID : XVID\nCodec ID/Hint : XviD\nDuration : 2h 4mn\nBit rate : 682 Kbps\nWidth : 640 pixels\nHeight : 272 pixels\nDisplay aspect ratio : 2.35:1\nFrame rate : 25.000 fps\nColor space : YUV\nChroma subsampling : 4:2:0\nBit depth : 8 bits\nScan type : Progressive\nCompression mode : Lossy\nBits/(Pixel*Frame) : 0.157\nStream size : 605 MiB (87%)\nWriting library : XviD 1.2.1 (UTC 2008-12-04)\n\nAudio\nID : 1\nFormat : MPEG Audio\nFormat version : Version 1\nFormat profile : Layer 3\nMode : Joint stereo\nMode extension : MS Stereo\nCodec ID : 55\nCodec ID/Hint : MP3\nDuration : 2h 4mn\nBit rate mode : Constant\nBit rate : 96.0 Kbps\nChannel(s) : 2 channels\nSampling rate : 32.0 KHz\nCompression mode : Lossy\nStream size : 85.2 MiB (12%)\nAlignment : Aligned on interleaves\nInterleave, duration : 160 ms (4.00 video frames)\nInterleave, preload duration : 216 ms\nTitle : Sonali Cable T01 DELAY 0ms\nWriting library : LAME3.99r\nEncoding settings : -m j -V 4 -q 2 -lowpass 15.1 -b 96\n\n\nThanks to Team TellyTNT!!\n\nSeed n Enjoy!!","torrent":{"xt":"urn:btih:92c81ec188db8e77919c5ebeea440b096e35d24a","amp;dn":"Sonali+Cable+%282014%29+1CD+DVDSCR+Rip+Xvid+Mp3+Team+TellyTNT+Exclus","amp;tr":["udp%3A%2F%2Ftracker.openbittorrent.com%3A80","udp%3A%2F%2Fopen.demonii.com%3A1337","udp%3A%2F%2Ftracker.coppersurfer.tk%3A6969","udp%3A%2F%2Fexodus.desync.com%3A6969"],"infoHash":"92c81ec188db8e77919c5ebeea440b096e35d24a","infoHashBuffer":{"type":"Buffer","data":[146,200,30,193,136,219,142,119,145,156,94,190,234,68,11,9,110,53,210,74]},"announce":[],"urlList":[]}}